<svg width="78" height="52" viewBox="0 0 78 52" fill="none" xmlns="http://www.w3.org/2000/svg">
<path d="M16.0278 14.2774L12.1676 16.5061C11.7716 16.7347 11.4821 16.9017 11.2513 17.0081C11.0199 17.1149 10.8659 17.1515 10.7386 17.1381C10.492 17.1122 10.2679 16.9829 10.1222 16.7822C10.0469 16.6787 10.0017 16.5271 9.97843 16.2733C9.9552 16.0201 9.95508 15.6859 9.95508 15.2287L9.95508 10.7713C9.95508 10.3141 9.9552 9.97986 9.97843 9.72671C10.0017 9.47291 10.0469 9.3213 10.1222 9.21772C10.2679 9.0171 10.492 8.88775 10.7386 8.86183C10.8659 8.84844 11.0199 8.88509 11.2513 8.99182C11.4821 9.09829 11.7716 9.26529 12.1676 9.49388L16.0278 11.7226C16.4238 11.9512 16.7131 12.1184 16.9208 12.2651C17.1289 12.4122 17.2376 12.5271 17.2897 12.6441C17.3905 12.8706 17.3905 13.1293 17.2897 13.3559C17.2376 13.4728 17.1289 13.5878 16.9208 13.7349C16.7131 13.8816 16.4238 14.0488 16.0278 14.2774Z" fill="#D1D5DB" fill-opacity="0.2" stroke="#D1D5DB" stroke-width="0.25"/>
<path d="M38.2 8.125H39.8C40.3621 8.125 40.7762 8.1251 41.1034 8.15183C41.4292 8.17845 41.6579 8.23084 41.8512 8.32936C42.204 8.50913 42.4909 8.79596 42.6706 9.14877C42.7692 9.34212 42.8215 9.57081 42.8482 9.89658C42.8749 10.2238 42.875 10.6379 42.875 11.2V14.8C42.875 15.3621 42.8749 15.7762 42.8482 16.1034C42.8215 16.4292 42.7692 16.6579 42.6706 16.8512C42.4909 17.204 42.204 17.4909 41.8512 17.6706C41.6579 17.7692 41.4292 17.8216 41.1034 17.8482C40.7762 17.8749 40.3621 17.875 39.8 17.875H38.2C37.6379 17.875 37.2238 17.8749 36.8966 17.8482C36.5708 17.8216 36.3421 17.7692 36.1488 17.6706C35.796 17.4909 35.5091 17.204 35.3294 16.8512C35.2308 16.6579 35.1785 16.4292 35.1518 16.1034C35.1251 15.7762 35.125 15.3621 35.125 14.8V11.2C35.125 10.6379 35.1251 10.2238 35.1518 9.89658C35.1785 9.57081 35.2308 9.34212 35.3294 9.14877C35.5091 8.79596 35.796 8.50913 36.1488 8.32936C36.3421 8.23084 36.5708 8.17845 36.8966 8.15183C37.2238 8.1251 37.6379 8.125 38.2 8.125Z" fill="#D1D5DB" fill-opacity="0.2" stroke="#D1D5DB" stroke-width="0.25"/>
<path d="M69.875 12.2V13.8C69.875 14.3621 69.8749 14.7762 69.8482 15.1034C69.8216 15.4292 69.7692 15.6579 69.6706 15.8512C69.4909 16.204 69.204 16.4909 68.8512 16.6706C68.6579 16.7692 68.4292 16.8216 68.1034 16.8482C67.7762 16.8749 67.3621 16.875 66.8 16.875H63.2C62.6379 16.875 62.2238 16.8749 61.8966 16.8482C61.5708 16.8215 61.3421 16.7692 61.1488 16.6706C60.796 16.4909 60.5091 16.204 60.3294 15.8512C60.2308 15.6579 60.1784 15.4292 60.1518 15.1034C60.1251 14.7762 60.125 14.3621 60.125 13.8L60.125 12.2C60.125 11.6379 60.1251 11.2238 60.1518 10.8966C60.1785 10.5708 60.2308 10.3421 60.3294 10.1488C60.5091 9.79596 60.796 9.50913 61.1488 9.32936C61.3421 9.23084 61.5708 9.17845 61.8966 9.15183C62.2238 9.1251 62.6379 9.125 63.2 9.125L66.8 9.125C67.3621 9.125 67.7762 9.1251 68.1034 9.15183C68.4292 9.17845 68.6579 9.23084 68.8512 9.32936C69.204 9.50913 69.4909 9.79596 69.6706 10.1488C69.7692 10.3421 69.8216 10.5708 69.8482 10.8966C69.8749 11.2238 69.875 11.6379 69.875 12.2Z" fill="#D1D5DB" fill-opacity="0.2" stroke="#D1D5DB" stroke-width="0.25"/>
<path d="M17.375 39C17.375 41.4162 15.4162 43.375 13 43.375C10.5838 43.375 8.625 41.4162 8.625 39C8.625 36.5838 10.5838 34.625 13 34.625C15.4162 34.625 17.375 36.5838 17.375 39Z" fill="#D1D5DB" fill-opacity="0.2" stroke="#D1D5DB" stroke-width="0.25"/>
<path d="M42.875 38.2V39.8C42.875 40.3621 42.8749 40.7762 42.8482 41.1034C42.8215 41.4292 42.7692 41.6579 42.6706 41.8512C42.4909 42.204 42.204 42.4909 41.8512 42.6706C41.6579 42.7692 41.4292 42.8216 41.1034 42.8482C40.7762 42.8749 40.3621 42.875 39.8 42.875H38.2C37.6379 42.875 37.2238 42.8749 36.8966 42.8482C36.5708 42.8215 36.3421 42.7692 36.1488 42.6706C35.796 42.4909 35.5091 42.204 35.3294 41.8512C35.2308 41.6579 35.1784 41.4292 35.1518 41.1034C35.1251 40.7762 35.125 40.3621 35.125 39.8L35.125 38.2C35.125 37.6379 35.1251 37.2238 35.1518 36.8966C35.1785 36.5708 35.2308 36.3421 35.3294 36.1488C35.5091 35.796 35.796 35.5091 36.1488 35.3294C36.3421 35.2308 36.5708 35.1784 36.8966 35.1518C37.2238 35.1251 37.6379 35.125 38.2 35.125L39.8 35.125C40.3621 35.125 40.7762 35.1251 41.1034 35.1518C41.4292 35.1785 41.6579 35.2308 41.8512 35.3294C42.204 35.5091 42.4909 35.796 42.6706 36.1488C42.7692 36.3421 42.8215 36.5708 42.8482 36.8966C42.8749 37.2238 42.875 37.6379 42.875 38.2Z" fill="#D1D5DB" fill-opacity="0.2" stroke="#D1D5DB" stroke-width="0.25"/>
<path d="M68.2146 40.6087L66.6087 42.2146C66.3102 42.513 66.0916 42.7315 65.9051 42.8899C65.7197 43.0473 65.5742 43.1379 65.4249 43.1864C65.1488 43.2761 64.8513 43.2761 64.5751 43.1864C64.4258 43.1379 64.2804 43.0473 64.0949 42.8899C63.9084 42.7315 63.6898 42.513 63.3914 42.2146L61.7855 40.6087C61.487 40.3102 61.2685 40.0916 61.1102 39.9051C60.9528 39.7197 60.8621 39.5742 60.8136 39.4249C60.7239 39.1488 60.7239 38.8513 60.8136 38.5751C60.8621 38.4258 60.9528 38.2804 61.1102 38.0949C61.2685 37.9084 61.487 37.6898 61.7855 37.3914L63.3914 35.7855C63.6898 35.487 63.9084 35.2685 64.0949 35.1102C64.2804 34.9528 64.4258 34.8621 64.5751 34.8136C64.8513 34.7239 65.1488 34.7239 65.4249 34.8136C65.5742 34.8621 65.7197 34.9528 65.9051 35.1102C66.0916 35.2685 66.3102 35.487 66.6087 35.7855L68.2146 37.3914C68.513 37.6898 68.7315 37.9084 68.8899 38.0949C69.0473 38.2804 69.1379 38.4258 69.1864 38.5751C69.2761 38.8513 69.2761 39.1488 69.1864 39.4249C69.1379 39.5742 69.0473 39.7197 68.8899 39.9051C68.7315 40.0916 68.513 40.3102 68.2146 40.6087Z" fill="#D1D5DB" fill-opacity="0.2" stroke="#D1D5DB" stroke-width="0.25"/>
</svg>
